<svg width="39.169922" height="24.000000" viewBox="0 0 39.1699 24" fill="none" xmlns="http://www.w3.org/2000/svg" xmlns:xlink="http://www.w3.org/1999/xlink">
	<desc>
			Created with Pixso.
	</desc>
	<defs/>
	<path id="monetization_on" d="M9.63 18.99L11.48 18.99L11.48 17.67C12.36 17.51 13.12 17.16 13.76 16.63C14.39 16.11 14.71 15.32 14.71 14.28C14.71 13.54 14.5 12.86 14.07 12.24C13.65 11.62 12.8 11.09 11.53 10.63C10.47 10.27 9.74 9.97 9.34 9.7C8.93 9.44 8.73 9.07 8.73 8.62C8.73 8.16 8.89 7.8 9.22 7.53C9.54 7.27 10.02 7.13 10.63 7.13C11.2 7.13 11.64 7.27 11.96 7.54C12.27 7.82 12.5 8.16 12.64 8.56L14.34 7.88C14.14 7.26 13.79 6.72 13.27 6.26C12.75 5.8 12.17 5.55 11.53 5.49L11.53 4.17L9.68 4.17L9.68 5.49C8.8 5.69 8.11 6.08 7.62 6.66C7.12 7.24 6.88 7.89 6.88 8.62C6.88 9.45 7.12 10.12 7.6 10.63C8.09 11.14 8.85 11.58 9.89 11.95C11 12.36 11.78 12.72 12.21 13.04C12.64 13.35 12.86 13.77 12.86 14.28C12.86 14.86 12.65 15.29 12.23 15.56C11.82 15.84 11.32 15.97 10.74 15.97C10.16 15.97 9.64 15.79 9.19 15.43C8.74 15.07 8.41 14.53 8.2 13.8L6.45 14.49C6.7 15.34 7.08 16.02 7.6 16.54C8.12 17.06 8.8 17.42 9.63 17.61L9.63 18.99ZM10.58 22.17C9.12 22.17 7.74 21.89 6.45 21.33C5.16 20.78 4.04 20.02 3.09 19.07C2.14 18.12 1.38 17 0.83 15.71C0.27 14.42 0 13.04 0 11.58C0 10.12 0.27 8.74 0.83 7.45C1.38 6.16 2.14 5.04 3.09 4.09C4.04 3.14 5.16 2.38 6.45 1.83C7.74 1.27 9.12 1 10.58 1C12.04 1 13.42 1.27 14.71 1.83C16 2.38 17.12 3.14 18.07 4.09C19.02 5.04 19.78 6.16 20.33 7.45C20.89 8.74 21.16 10.12 21.16 11.58C21.16 13.04 20.89 14.42 20.33 15.71C19.78 17 19.02 18.12 18.07 19.07C17.12 20.02 16 20.78 14.71 21.33C13.42 21.89 12.04 22.17 10.58 22.17Z" fill="#FFFFFF" fill-opacity="1.000000" fill-rule="nonzero"/>
	<path id="1" d="M34.22 4.45L36.36 4.45L36.36 19L34.16 19L34.16 6.65L34.07 6.65L30.59 8.92L30.59 6.82L34.22 4.45Z" fill="#FFFFFF" fill-opacity="1.000000" fill-rule="evenodd"/>
</svg>
